Patient4_TMGait_0pt5_01_right_40_EMG.mot
version=1
nRows=27
nColumns=33
inDegrees=no
endheader
time	1LAddLong	2LGlutMax	3LGlutMed	4LIliopsoas	5LSemiMemb	6LBicFemLong	7LRecFem	8LVastMed	9LVastLat	10LGasMed	11LTibAnt	12lTibPost	13LPeroneusLong	14LSol	15LExtDigLong	16LFlexDigLong	17RAddLong	18RGlutMax	19RGlutMed	20RIliopsoas	21RSemiMemb	22RBicFemLong	23RRecFem	24RVastMed	25RVastLat	26RGasMed	27RTibAnt	28RTibPost	29RPeroneusLong	30RSol	31RExtDigLong	32RFlexDigLong
53.117	0.013428	-0.2034	0.27634	-0.00061	0.012054	-0.020294	-0.013428	0.015869	0.075684	0.025635	-0.068817	0.041046	-0.084839	0.12558	0.036926	0.024261	-0.091705	-0.14862	-0.63889	-0.066376	-0.11353	0.39169	-0.013885	0.14145	0.037231	-0.076294	0.047913	-0.027924	0.20981	0.26093	-0.003052	-0.008392
53.118	0.012512	-0.21423	0.23789	0.008087	0.012207	-0.001984	-0.017853	0.006866	0.096893	0.016785	-0.36865	0.37582	-0.11047	0.071106	0.15945	0.008392	-0.088806	-0.097351	0.40146	-0.066528	0.17929	0.06012	-0.044708	0.077209	0.011902	-0.168	0.083466	-0.13351	0.24735	-0.14404	-0.004578	-0.005493
53.119	0.012665	-0.16632	0.22476	0.013123	0.018616	0.007629	-0.005035	0.0177	0.082703	-0.025635	-0.15396	0.079041	-0.11551	0.046539	0.91431	0.009766	-0.041962	0.065613	0.80475	-0.16159	0.30792	-0.059357	0.087433	0.014038	-0.046234	-0.17868	0.036621	-0.16495	0.010223	-0.2623	-0.006256	-0.00824
53.12	0.004272	-0.16846	0.20432	0.019073	0.014038	0.013885	0.046234	0.009155	0.1033	-0.068512	0.27008	-0.1152	-0.079041	0.12634	0.21652	0.014648	-0.014954	0.1326	0.059509	-0.14114	0.17471	-0.082397	0.22354	-0.088959	-0.10651	-0.098114	-0.033722	0.17319	0.075378	-0.5101	0.000916	-0.004883
53.121	0.003357	-0.15762	0.16678	0	0.014954	0.021515	0.10269	0.012665	0.12131	-0.082703	0.37018	-0.097351	0.006561	0.22171	-0.32761	0.017395	-0.034637	0.27405	-0.28961	0.15274	-0.37766	0.017242	0.1535	-0.033264	-0.13123	0.015564	-0.020294	0.38238	0.168	-0.57907	-0.005341	-0.005493
53.122	0	-0.14084	0.12253	0.018158	0.010529	0.013275	0.13031	0.012207	0.1445	-0.045319	0.32516	-0.046844	0.039063	0.22888	-0.28137	0.002441	-0.030823	0.2211	0.36133	0.29434	-0.11063	-0.010834	0.1329	0.038147	-0.12619	0.1265	0.01236	-0.29007	0.19073	-0.18906	-0.002747	-0.011597
53.123	0.001068	-0.13367	0.11429	0.00473	0.014496	0.019379	0.14664	0.019684	0.16083	0.024719	0.035858	-0.010834	-0.013428	0.21316	0.39993	0.001831	-0.016632	0.033417	1.2137	0.13702	0.000763	-0.085907	0.14236	-0.003204	-0.13016	0.074158	0.052795	-0.56946	0.31174	0.11231	-0.003815	-0.017395
53.124	0.005035	-0.10391	0.099792	0.03418	0.017853	0.017395	0.14816	0.009766	0.18631	0.047913	-0.33844	0.016632	-0.11307	0.13519	-0.39963	0.01358	0.003662	-0.20401	0.85022	-0.06073	-0.037384	-0.099335	0.1152	0.059967	-0.069122	0.055847	0.02533	0.0737	0.072784	0.85419	-0.002441	-0.019073
53.125	-0.001373	-0.095215	0.095367	0.04425	0.010986	0.01709	0.16205	0.007324	0.21103	0.034332	-0.39764	0.075989	-0.12833	0.032196	-0.77652	0.006104	0.011749	-0.44891	-0.11826	-0.12253	0.11322	-0.17288	0.11658	0.092926	-0.031433	0.076752	0.034485	0.168	-0.29495	1.1636	-0.001373	-0.018005
53.126	0.003357	-0.095978	0.08316	0.043793	0.013733	0.003052	0.19959	0.006561	0.22339	-0.052185	-0.43106	0.098877	0.001678	0.04303	-0.68176	0.013885	0.033264	-0.62103	-0.87769	-0.11444	0.007629	-0.22522	0.1648	-0.028534	-0.010376	0.086823	0.012512	0.50919	-0.020294	0.51392	-0.00412	-0.018616
53.127	0.007172	-0.12161	0.052185	0.024261	0.011597	0.007019	0.1738	0.007935	0.22873	-0.10925	-0.34088	0.10712	0.075989	0.078888	-0.20676	0.010529	-0.003357	-0.66864	-1.106	-0.063171	-0.041656	-0.25299	0.052948	-0.027618	0.059814	0.063629	0.027161	-0.022278	-0.06546	0.3241	0.001068	-0.03006
53.128	0.004883	-0.10346	0.032959	0.002899	0.010834	0.018463	0.15457	0.007629	0.2356	-0.11353	0.028076	0.057068	-0.008087	0.003967	0.37781	0.014954	0.011902	-0.80826	-1.1755	-0.045471	-0.042877	-0.25879	-0.098267	-0.092163	0.072479	0.0354	0.046234	-0.17242	-0.18707	1.0902	0.000763	-0.022583
53.129	0.013885	-0.085602	0.011444	-0.040588	0.007629	-0.004578	0.19547	0.002594	0.23911	-0.091553	-0.071869	0.1767	-0.089569	-0.11948	0.79971	0.018158	0.028229	-0.9819	-1.4549	-0.02121	-0.065155	-0.2214	-0.037384	-0.038147	0.052643	0.047302	0.083618	0.42404	-0.16083	1.218	-0.003815	-0.018005
53.13	0.001831	-0.06134	0.007629	-0.024414	0.005951	0.001526	0.18463	0.00351	0.24689	-0.076904	-0.26932	0.094299	0.018616	-0.3273	-0.34225	0.005341	0.024719	-1.2468	-1.1868	-0.0383	-0.083313	-0.21088	0.097198	0.015259	0.018921	0.029907	0.13336	0.35934	-0.12558	1.0034	-0.006409	-0.012512
53.131	-0.007172	-0.036926	-0.012054	-0.012512	0.005341	-0.000153	0.14999	-0.004883	0.25223	-0.067902	-0.18784	-0.05722	0.033264	-0.3418	-0.96634	-0.00412	0.027618	-1.1407	-0.68466	-0.080872	-0.16937	-0.19623	0.13794	-0.067291	-0.005188	0.021667	0.15289	-0.083618	-0.21622	-0.1799	-0.007172	-0.021362
53.132	-0.007629	-0.042419	-0.044708	0.000763	0.004425	0.006866	0.17807	0.02655	0.24094	-0.028076	0.11383	-0.051117	-0.079651	-0.21973	-1.3525	-0.015411	0.048218	-1.2633	-0.34531	-0.012665	-0.17944	-0.26489	0.097351	-0.099945	-0.033722	0.028534	0.17593	-0.11276	0.033569	-0.88547	-0.007324	-0.019073
53.133	-0.011292	-0.079498	-0.072021	-0.016937	0.007629	0.013733	0.13153	0.021667	0.23819	-0.009918	0.1944	-0.038452	-0.17059	-0.20172	-0.75378	-0.009613	0.050507	-1.2596	-0.57816	0.060272	-0.058899	-0.27756	0.039673	-0.10025	-0.011597	0.002136	0.11826	-0.037231	0.74524	-1.2776	-0.004425	-0.018311
53.134	-0.003967	-0.083008	-0.066681	-0.002289	0.007935	-0.004883	0.072021	0.023499	0.24078	-0.011292	-0.016174	0.027161	-0.13733	-0.22171	-0.54428	-0.001373	0.048523	-1.2585	-0.24109	0.007629	-0.11154	-0.34332	0.028076	-0.13046	0.022736	-0.062866	0.052185	-0.090637	0.89264	-1.2439	-0.001526	-0.015259
53.135	0.008545	-0.080719	-0.052338	0.007935	0.006866	0.003967	0.074463	0.003662	0.24597	-0.025482	-0.34424	0.052338	-0.11856	-0.2385	-0.48309	0.005188	0.055542	-1.3176	-0.50552	-0.089111	-0.22354	-0.2684	0.11124	-0.037537	0.034027	-0.04776	0.063629	0.008698	0.092468	-0.48523	-0.007172	-0.011292
53.136	-0.010529	-0.054626	-0.06485	-0.001678	0.009766	0.007782	0.10742	0.013428	0.27344	-0.020142	-0.17548	0.054932	-0.12848	-0.2449	0.10635	0.018768	0.041504	-1.4415	-0.28519	-0.023956	0.05722	0.098419	0.15182	-0.070801	0.019226	-0.085144	0.038757	-0.093536	-0.36941	-0.10498	-0.006256	-0.003815
53.137	0.012817	-0.032501	-0.05722	-0.014038	0.002747	-0.007629	0.13992	0.008698	0.31677	-0.061951	-0.058136	0.088806	-0.1831	-0.12634	0.98084	0.032806	0.006561	-1.2785	0.59235	0.10117	0.062714	0.21103	0.13443	-0.060272	-0.009918	-0.09613	-0.06073	-0.097046	-0.90683	-0.0914	-0.002136	0.011597
53.138	-0.00946	-0.055542	-0.057831	-0.015411	0.010681	-0.011139	0.19562	0.003815	0.32516	-0.11017	0.090179	0.10986	-0.1062	-0.014954	1.1591	0.020599	-0.054626	-1.3275	0.79239	0.087585	-0.16098	0.30334	0.29785	-0.080719	-0.006409	-0.006104	-0.076599	0.071869	-0.70297	-0.46066	-0.001831	0.008392
53.139	0.010529	-0.058746	-0.094299	-0.003357	0.007629	-0.006256	0.24826	0.00412	0.36545	-0.095978	0.12711	0.13519	-0.1178	-0.065613	0.60333	0.021362	-0.05127	-1.3756	0.2533	-0.06897	-0.26901	0.34271	0.36804	-0.05722	-0.033264	-0.22308	0.00885	-0.30075	-0.39703	-0.77057	-0.012817	0.003052
53.14	0.00061	-0.058441	-0.11459	0.005798	0.006256	0.003967	0.19363	-0.001068	0.36514	-0.11887	0.090027	0.16068	-0.02121	-0.16663	0.40039	0.024872	-0.039978	-1.4882	-0.14862	-0.10681	-0.26108	0.31708	0.26032	0.073547	-0.024414	-0.34637	0.040588	-0.439	-0.013885	-0.57922	-0.003204	-0.004578
53.141	0.00824	-0.081635	-0.1152	0.028229	0.010071	-0.011597	0.046997	-0.006714	0.37201	-0.13184	-0.008087	0.16708	0.019989	-0.20737	-0.43381	0.020905	-0.064087	-1.476	-0.66681	-0.10559	-0.24597	0.33478	0.1178	0.043793	-0.037231	-0.1181	0.032501	-0.16327	0.26504	0.16174	-0.002441	-0.013885
53.142	0.004578	-0.068359	-0.15915	0.041809	0.005798	-0.008698	-0.043793	-0.000458	0.35339	-0.11597	-0.3096	0.28732	0.059967	-0.20447	-0.27191	0.019836	-0.078888	-1.523	-0.69	-0.013123	-0.057678	0.34836	0.18631	0.075989	-0.056	0.034485	0.045013	0.039978	0.083771	0.60028	-0.001831	0
53.143	0.000153	-0.042419	-0.17014	0.028839	0.004425	0.000763	-0.069427	-0.007019	0.36102	-0.10269	-0.25253	0.088501	0.09613	-0.20386	0.001831	0.030823	-0.067444	-1.5172	-0.22644	0.075073	0.058746	0.14755	0.22797	0.05661	-0.046082	0.10574	0.020752	0.61127	0.20203	0.34103	0.005951	-0.016174
